# xmcd
#
# Track frame offsets:
#	150
#	11104
#	26034
#	36314
#	49294
#	65274
#	84179
#	98135
#	113215
#	126728
#	144514
#	163415
#	175045
#	188168
#
# Disc length: 2705 seconds
#
# Revision: 2
# Processed by: cddbd v1.5.2PL0 Copyright (c) Steve Scherf et al.
# Submitted via: audiograbber 1.83.01
#
DISCID=c50a8f0e
DTITLE=Various Artist - CDX 55
DYEAR=1993
DGENRE=Country
TTITLE0=Kim Perry - Are There Any More At Home Like You
TTITLE1=Pam Tillis - Cleopatra, Queen Of Denial
TTITLE2=The Kentucky Headhunters - Dixie Fried
TTITLE3=Sammy Kershaw - Haunted Heart
TTITLE4=Paul Hale - I'm Losing You All Over Again
TTITLE5=Lari White - Lead Me Not
TTITLE6=John Anderson - Money In The Bank
TTITLE7=Dolly Parton - More Where That Came From
TTITLE8=Mac McAnally - Not That Long Ago
TTITLE9=Kathy Mattea - Seeds [Radio Remix]
TTITLE10=Billy Ray Cyrus - Some Gave All
TTITLE11=The Marshall Tucker Band - Walk Outside The Lines
TTITLE12=George Strait - When Did You Stop Loving Me
TTITLE13=Travis Tritt - T-R-O-U-B-L-E [Dance Mix]
EXTD=
EXTT0=
EXTT1=
EXTT2=
EXTT3=
EXTT4=
EXTT5=
EXTT6=
EXTT7=
EXTT8=
EXTT9=
EXTT10=
EXTT11=
EXTT12=
EXTT13=
PLAYORDER=
